HIERARCHY
ROOT root
{
	OFFSET 0.000000 0.000000 0.000000
	CHANNELS 6 Xposition Yposition Zposition Zrotation Yrotation Xrotation
	JOINT lhip
	{
		OFFSET 0.058581 -0.082280 -0.017664
		CHANNELS 3 Zrotation Yrotation Xrotation
		JOINT lknee
		{
			OFFSET 0.043451 -0.386469 0.008037
			CHANNELS 3 Zrotation Yrotation Xrotation
			JOINT lankle
			{
				OFFSET -0.014790 -0.426874 -0.037428
				CHANNELS 3 Zrotation Yrotation Xrotation
				JOINT ltoe
				{
					OFFSET 0.041054 -0.060286 0.122042
					CHANNELS 3 Zrotation Yrotation Xrotation
					End Site
					{
						OFFSET 0.000000 0.000000 0.000000
					}
				}
			}
		}
	}
	JOINT rhip
	{
		OFFSET -0.060310 -0.090513 -0.013543
		CHANNELS 3 Zrotation Yrotation Xrotation
		JOINT rknee
		{
			OFFSET -0.043257 -0.383688 -0.004843
			CHANNELS 3 Zrotation Yrotation Xrotation
			JOINT rankle
			{
				OFFSET 0.019056 -0.420046 -0.034562
				CHANNELS 3 Zrotation Yrotation Xrotation
				JOINT rtoe
				{
					OFFSET -0.034840 -0.062106 0.130323
					CHANNELS 3 Zrotation Yrotation Xrotation
					End Site
					{
						OFFSET 0.000000 0.000000 0.000000
					}
				}
			}
		}
	}
	JOINT lowerback
	{
		OFFSET 0.004439 0.124404 -0.038385
		CHANNELS 3 Zrotation Yrotation Xrotation
		JOINT upperback
		{
			OFFSET 0.004488 0.137956 0.026820
			CHANNELS 3 Zrotation Yrotation Xrotation
			JOINT chest
			{
				OFFSET -0.002265 0.056032 0.002855
				CHANNELS 3 Zrotation Yrotation Xrotation
				JOINT lowerneck
				{
					OFFSET -0.013390 0.211636 -0.033468
					CHANNELS 3 Zrotation Yrotation Xrotation
					JOINT upperneck
					{
						OFFSET 0.010113 0.088937 0.050410
						CHANNELS 3 Zrotation Yrotation Xrotation
						End Site
						{
							OFFSET 0.000000 0.000000 0.000000
						}
					}
				}
				JOINT lclavicle
				{
					OFFSET 0.071702 0.114000 -0.018898
					CHANNELS 3 Zrotation Yrotation Xrotation
					JOINT lshoulder
					{
						OFFSET 0.122921 0.045205 -0.019046
						CHANNELS 3 Zrotation Yrotation Xrotation
						JOINT lelbow
						{
							OFFSET 0.255332 -0.015649 -0.022946
							CHANNELS 3 Zrotation Yrotation Xrotation
							JOINT lwrist
							{
								OFFSET 0.265709 0.012698 -0.007375
								CHANNELS 3 Zrotation Yrotation Xrotation
								End Site
								{
									OFFSET 0.000000 0.000000 0.000000
								}
							}
						}
					}
				}
				JOINT rclavicle
				{
					OFFSET -0.082954 0.112472 -0.023707
					CHANNELS 3 Zrotation Yrotation Xrotation
					JOINT rshoulder
					{
						OFFSET -0.113228 0.046853 -0.008472
						CHANNELS 3 Zrotation Yrotation Xrotation
						JOINT relbow
						{
							OFFSET -0.260127 -0.014369 -0.031269
							CHANNELS 3 Zrotation Yrotation Xrotation
							JOINT rwrist
							{
								OFFSET -0.269108 0.006794 -0.006027
								CHANNELS 3 Zrotation Yrotation Xrotation
								End Site
								{
									OFFSET 0.000000 0.000000 0.000000
								}
							}
						}
					}
				}
			}
		}
	}
}
MOTION
Frames: 17
Frame Time: 0.033333
-0.906685 -1.850421 0.978391 167.764978 -0.332758 89.023008 0.447275 1.342829 5.137817 -4.746477 -2.506553 -1.093165 5.677424 -4.555549 -12.328916 0.000000 -0.000000 0.000000 -3.471576 -14.087506 4.421005 2.640497 -5.495580 8.757202 -4.224991 -3.688150 -16.863374 0.000000 -0.000000 0.000000 -1.476941 1.610308 -10.374392 1.786498 -6.188438 19.454764 0.850886 -1.270806 1.696671 -6.051875 11.817473 8.592119 -3.101346 16.531618 -1.719577 -21.376640 6.271298 3.575980 -69.633295 -4.601466 16.225250 -165.828829 -71.798042 -169.269745 4.798663 -7.759254 -26.706404 19.787984 -1.970211 8.284455 64.156203 10.149713 11.862772 -55.939467 67.211819 -36.891727 15.674625 -0.238500 -4.097607 
-0.905903 -1.848466 0.977495 167.126377 0.160882 89.141462 0.357862 0.419866 2.508824 -4.280651 -2.462827 3.973263 6.351445 -2.318697 -14.872826 0.000000 -0.000000 0.000000 -2.891279 -13.659782 4.321408 2.884295 -4.151567 8.985153 -3.808914 -4.834707 -17.583476 0.000000 -0.000000 0.000000 -0.424836 1.677341 -9.543031 1.063370 -5.418151 16.731312 1.098003 -1.391857 3.878664 -6.430110 12.354287 6.973114 -2.416332 17.328556 -0.088671 -21.109906 6.394746 3.288750 -70.169714 -4.503665 16.005092 -162.978991 -71.421140 -171.011031 4.647167 -7.968050 -27.436564 19.947089 -2.461467 7.615906 64.030606 9.666400 11.747894 -56.367678 68.176154 -36.096801 15.262381 -0.811271 -4.164946 
-0.905121 -1.846360 0.977494 166.132435 0.437986 89.450846 0.154766 -1.392945 -0.486959 -4.164696 -1.086391 10.022622 7.881148 -0.074169 -18.408886 0.000000 -0.000000 0.000000 -2.434416 -12.446727 3.876400 3.125285 -3.850526 9.531468 -4.099769 -5.413478 -18.655283 0.000000 -0.000000 0.000000 0.170506 1.883571 -9.839188 0.960470 -5.295831 16.474197 0.596096 -1.336049 4.178454 -6.463374 13.836236 6.672479 -2.267997 18.081791 0.988663 -20.988622 6.543865 3.368165 -70.360891 -4.319240 16.340176 -163.609153 -71.300061 -169.518666 5.940335 -8.848618 -27.807391 20.085070 -2.722644 8.056985 64.466118 9.809868 12.351907 -55.455314 68.684173 -34.693994 14.383010 -0.361859 -6.718119 
-0.904006 -1.841673 0.977682 164.623656 0.658719 89.466647 -0.079114 -4.173425 -2.945903 -4.261697 0.805402 16.357682 9.252727 3.179725 -22.061491 0.000000 -0.000000 0.000000 -2.223213 -10.982884 3.922404 3.588448 -3.020045 10.238559 -4.485931 -6.616944 -19.714429 0.000000 -0.000000 0.000000 0.603680 2.396169 -10.430640 0.974117 -5.294913 17.024776 -0.097759 -1.192133 5.278287 -6.266140 15.687219 4.075443 -2.177449 18.163837 2.261014 -20.902986 6.348014 2.859266 -71.088412 -5.146647 16.452493 -164.220254 -71.914684 -168.591121 3.481959 -7.461035 -28.424594 20.912310 -2.983545 7.853293 64.197220 10.107817 13.262161 -57.786030 68.580207 -35.043971 15.093817 -1.669368 -7.066767 
-0.902665 -1.837757 0.977660 163.564738 0.677707 89.595746 -0.254630 -6.413181 -4.719312 -4.373192 2.576978 20.790559 9.662355 5.552340 -24.085948 0.000000 -0.000000 0.000000 -2.440446 -10.287008 3.979541 4.139750 -2.746394 10.620606 -4.382092 -6.982114 -20.579326 0.000000 -0.000000 0.000000 1.218778 2.270506 -10.785067 0.643498 -5.544650 17.474153 -0.911198 -1.040883 5.877987 -6.903495 16.902407 1.722310 -2.026348 18.675518 3.055172 -21.371692 7.446547 1.664756 -70.350856 -5.128147 16.654748 -162.529459 -71.749723 -170.178361 3.268875 -7.683325 -28.434032 21.714368 -3.136675 8.155943 63.967944 11.062499 14.248398 -56.716626 68.515385 -34.092894 14.317530 -1.669183 -8.028446 
-0.900927 -1.832146 0.977562 162.378727 0.853181 90.146591 -0.145551 -7.912224 -6.747859 -4.411387 4.119688 25.164043 9.905985 6.975789 -26.225771 0.000000 -0.000000 0.000000 -2.272024 -9.162448 3.553787 4.428483 -2.689981 11.195731 -4.453689 -7.370623 -21.417739 0.000000 -0.000000 0.000000 1.152367 2.972701 -11.362795 0.971227 -5.502647 17.650566 -1.095998 -1.254845 5.714536 -6.598750 18.063888 1.556100 -1.807688 18.879440 3.237691 -21.482227 6.675755 2.345015 -70.599709 -5.186895 16.775243 -163.663087 -72.163804 -168.182522 2.923965 -8.028009 -28.200008 22.168654 -3.737263 8.123161 63.515385 10.575479 14.072051 -57.298781 68.890775 -32.880229 14.660743 -2.559515 -8.290772 
-0.897792 -1.827640 0.976515 161.120042 1.480913 90.668529 0.446779 -8.573946 -7.747932 -4.420926 4.984962 27.630537 10.112921 8.666621 -28.865690 0.000000 -0.000000 0.000000 -1.342096 -7.848905 3.025417 4.601027 -1.894291 11.821500 -5.587824 -8.314699 -21.458842 0.000000 -0.000000 0.000000 1.681418 2.864746 -11.911904 0.920541 -5.487724 18.073686 -1.360387 -1.119900 6.110539 -6.994404 19.552325 -0.306971 -1.462500 19.656080 4.202909 -21.289870 6.290972 2.187365 -70.836539 -5.453511 16.758807 -163.785949 -72.220469 -166.976683 2.994424 -8.300693 -27.942185 22.524569 -3.411881 8.591069 63.415060 11.093498 14.097531 -55.708193 68.784928 -31.207389 14.309143 -1.849334 -10.840729 
-0.895088 -1.819762 0.975497 160.116885 1.784907 91.327368 0.627711 -9.289355 -8.768318 -4.508320 5.508178 30.108595 10.104618 10.030517 -30.841068 0.000000 -0.000000 0.000000 -1.166184 -7.133268 2.777477 4.724670 -2.011156 12.118749 -5.120812 -8.375445 -22.852518 0.000000 -0.000000 0.000000 1.956327 3.029064 -12.323254 0.922632 -5.652568 18.251600 -1.523415 -1.160363 5.666061 -7.011206 20.319114 -0.267357 -1.147197 19.563586 3.971740 -21.329490 5.561730 2.057848 -70.812770 -5.718073 17.244809 -163.445732 -72.723288 -166.297697 3.844899 -7.287829 -27.417876 22.377383 -3.392482 8.994382 63.704803 10.578738 14.041570 -54.791830 69.397552 -29.736297 13.327060 -2.606634 -12.912562 
-0.891659 -1.809346 0.973753 158.310836 1.792596 91.325719 0.773081 -8.618767 -8.705069 -5.100770 5.922515 31.220654 10.021743 9.990504 -29.689140 0.000000 -0.000000 0.000000 -1.470289 -6.944640 3.042973 4.614493 -0.885036 12.580681 -5.419661 -7.274807 -23.397415 0.000000 -0.000000 0.000000 1.880237 3.461295 -12.243423 0.724379 -5.683495 18.907612 -1.690647 -0.792870 5.204943 -7.391760 22.150626 -0.979558 -0.443962 19.629111 3.685490 -20.862009 4.847682 1.884832 -71.256639 -5.720011 17.253914 -162.820029 -73.335930 -166.666780 3.900024 -7.013612 -27.443226 22.304271 -3.108611 9.718664 64.259996 10.761459 13.537729 -53.880047 69.938029 -28.481511 12.908691 -3.248351 -14.262054 
-0.888162 -1.798001 0.971411 157.179898 1.994127 92.488327 1.364333 -7.982331 -10.039487 -5.670170 6.642107 33.064647 9.911020 9.606217 -30.237398 0.000000 -0.000000 0.000000 -1.388193 -6.723646 2.281867 4.544316 -0.772968 13.192225 -5.594794 -6.498800 -24.539761 0.000000 -0.000000 0.000000 1.567077 3.558155 -12.153450 0.941684 -5.749995 18.528028 -1.206020 -0.469856 4.011977 -6.467489 19.409017 2.590613 0.406297 18.219873 2.008222 -20.887605 3.995533 2.625897 -71.812965 -6.044481 16.844838 -158.902134 -74.189949 -170.552593 4.471949 -6.492044 -28.489649 21.139870 -2.872214 10.932224 65.652339 10.077995 12.195552 -52.604813 70.996760 -26.969154 11.422035 -4.616775 -16.926759 
-0.886145 -1.786651 0.968453 155.667098 2.360520 93.288966 1.674478 -8.234082 -10.577613 -6.568650 6.682372 34.209229 9.779452 10.787926 -30.440209 0.000000 -0.000000 0.000000 -1.204275 -5.947988 1.903331 4.701048 0.255728 13.134606 -6.424309 -6.865288 -24.594808 0.000000 -0.000000 0.000000 2.162006 3.734974 -11.505934 0.447350 -5.344348 17.452385 -1.246746 0.060416 3.188753 -6.719381 20.367783 3.132095 3.900290 17.929012 1.375838 -20.081112 3.270136 3.337484 -72.630504 -6.117744 16.694551 -153.643530 -74.691998 -175.072748 6.371397 -5.763158 -32.088366 20.810402 -2.643425 12.615031 66.956720 9.959813 11.242913 -48.834427 71.990851 -24.802185 5.442585 -5.189569 -24.590557 
-0.883526 -1.774776 0.966303 154.017992 2.835307 94.230226 1.992226 -7.031481 -11.560277 -6.502606 7.247874 35.895286 9.404873 10.693427 -31.119440 0.000000 -0.000000 0.000000 -1.020091 -5.487232 1.425244 4.432822 0.476462 13.472041 -6.908289 -5.977241 -25.417636 0.000000 -0.000000 0.000000 2.694661 3.861057 -10.931215 0.328700 -4.745459 16.507479 -1.197841 0.356796 2.899274 -7.021018 19.911558 2.457514 3.842961 17.016151 1.018852 -20.056902 2.977100 3.270278 -72.557597 -6.429371 17.193808 -146.930793 -75.176528 178.009678 9.437174 -4.691426 -35.471901 20.633604 -2.403008 13.789375 68.739142 10.357322 11.166427 -44.391373 72.969004 -27.766348 -4.321318 -4.222021 -39.747979 
-0.882975 -1.761640 0.963319 152.776061 3.191968 95.175554 1.979870 -6.334192 -12.750618 -6.365115 7.989341 37.942607 8.730207 10.718797 -31.697704 0.000000 -0.000000 0.000000 -1.349313 -5.311005 0.922263 4.375422 -0.067218 14.060315 -6.809717 -4.596489 -26.498151 0.000000 -0.000000 0.000000 3.393726 3.866794 -9.920696 0.162072 -4.190281 15.270824 -1.456913 0.604376 3.079338 -7.039915 20.015192 1.127590 4.042579 16.773418 0.820589 -19.383218 2.884298 2.583905 -72.923810 -6.592066 18.733971 -142.733577 -76.074954 174.251134 10.866920 -4.912990 -40.119846 20.311585 -2.253604 13.334643 70.706360 10.433238 10.844212 -45.469855 72.952085 -37.906150 -3.644152 2.572199 -63.793645 
-0.882458 -1.747845 0.959566 151.356009 3.447436 95.792584 1.836004 -4.656607 -13.455265 -5.830422 8.825494 39.578875 8.416387 9.099605 -31.204294 0.000000 -0.000000 0.000000 -1.940143 -5.707017 0.506992 4.119278 0.208735 14.849829 -6.430941 -2.810253 -27.027108 0.000000 -0.000000 0.000000 4.009628 3.865677 -8.070995 0.099604 -3.854556 14.520998 -1.558718 1.009459 2.405619 -7.884229 19.927058 -0.170930 3.914267 16.748700 0.730406 -18.619493 2.293328 2.325250 -73.204283 -6.359742 18.588512 -136.585706 -77.944196 168.100659 11.123353 -5.871250 -43.631857 19.904542 -1.256558 13.127797 72.364244 10.630034 9.568623 -47.834865 71.972804 -46.188345 -3.475562 9.749929 -75.808115 
-0.882391 -1.734309 0.954790 149.749787 3.689917 96.658658 1.645957 -2.229511 -14.528798 -4.690273 9.831185 41.041820 7.667061 5.981907 -29.550915 0.000000 -0.000000 0.000000 -2.342523 -5.815228 -0.540360 3.432236 -0.069232 15.613916 -6.723204 -1.817465 -27.241532 0.000000 -0.000000 0.000000 4.179720 3.808138 -5.367726 0.417905 -3.070169 12.875162 -1.363203 1.540689 2.129984 -8.692259 20.472397 -1.889093 3.096998 16.892880 -0.068818 -17.717941 2.890625 1.605969 -73.384865 -6.445664 17.505083 -110.632079 -81.681047 143.528442 10.060113 -8.197944 -44.410245 20.048256 -0.862711 12.295532 72.853317 11.577549 8.409898 -49.630692 70.857617 -52.134093 -4.503669 18.174590 -84.768638 
-0.887221 -1.719659 0.947322 150.024076 3.767676 98.508380 -0.009554 1.559040 -16.577788 -3.244763 6.093461 41.376026 8.235789 3.206903 -26.567126 0.000000 -0.000000 0.000000 -2.941765 -7.839542 -3.527443 2.925233 -0.378671 17.984110 -6.664993 -0.628595 -28.183633 0.000000 -0.000000 0.000000 5.250022 2.539018 -0.304666 0.250320 -3.028640 6.947167 -0.991079 1.665862 1.991642 -9.006842 21.289653 -2.124566 2.753825 17.507769 -0.717163 -16.851480 4.286307 1.715270 -73.156635 -4.891086 14.062560 -68.854640 -80.800199 104.577947 8.559029 -8.398694 -45.530860 19.570017 -1.059599 11.791891 71.915366 13.123087 6.137224 -53.173477 70.508451 -55.213147 -6.175188 16.027207 -83.785427 
-0.890293 -1.701282 0.940016 148.278999 4.099898 98.568524 0.592312 3.345990 -19.236535 -4.461987 6.216820 47.667298 6.372326 1.496868 -23.753791 0.000000 -0.000000 0.000000 -4.165767 -8.744435 -4.554048 2.633901 -0.422417 20.945285 -7.052276 0.780551 -29.380405 0.000000 -0.000000 0.000000 6.280919 2.849560 3.747236 0.246446 -2.591986 5.170880 -0.697353 2.149123 1.788237 -8.688318 22.074137 -1.851212 1.819653 17.630379 -1.631081 -16.757478 4.016080 1.123462 -71.503363 -2.616148 9.914456 -33.146135 -75.819297 72.065875 5.594401 -8.278817 -41.331369 19.245173 -0.232190 11.123695 71.353143 13.589064 5.211693 -66.995979 73.269512 -65.162610 -9.787742 12.241439 -80.483049 
